<svg viewBox="0 0 880 570" xmlns="http://www.w3.org/2000/svg" font-family="'Inter','Segoe UI','Helvetica Neue',Arial,sans-serif">

  <defs>
    <filter id="sh30c">
      <feDropShadow dx="0" dy="2" stdDeviation="3.5" flood-color="#1B2A33" flood-opacity="0.12"/>
    </filter>
    <linearGradient id="goldRule30c" x1="0" y1="0" x2="1" y2="0">
      <stop offset="0%" stop-color="#C2912C"/>
      <stop offset="100%" stop-color="#E8B84B"/>
    </linearGradient>
    <marker id="arrowHead30c" markerWidth="9" markerHeight="7" refX="8" refY="3.5" orient="auto">
      <polygon points="0 0, 9 3.5, 0 7" fill="#2E7D8A"/>
    </marker>
  </defs>

  <!-- Frame -->
  <rect x="1" y="1" width="878" height="568" rx="16" fill="#FBF8F1" stroke="#E6DFC9" stroke-width="1.5"/>

  <!-- Kicker -->
  <text x="44" y="50" font-size="12.5" font-weight="700" letter-spacing="2.5" fill="#C2912C" text-anchor="start">DIAGRAMA 30.3 · INVARIANTE 3 — CAMADA DUPLA</text>

  <!-- Title -->
  <text x="44" y="76" font-size="23" font-weight="700" fill="#1B2A33">Skill em ação no Claude</text>

  <!-- Gold Rule -->
  <rect x="44" y="90" width="86" height="3.5" rx="1.75" fill="url(#goldRule30c)"/>

  <!-- Legend -->
  <text x="44" y="114" font-size="13" fill="#44525C">Da estrutura da pasta à execução real em conversa — Skill "Análise de Contrato B2B".</text>

  <!-- ─────────── COLUMN 1: PASTA DA SKILL ─────────── -->
  <rect x="40" y="130" width="234" height="362" rx="13" fill="#FFFFFF" filter="url(#sh30c)" stroke="#E6DFC9" stroke-width="1"/>

  <!-- Col 1 Header -->
  <rect x="40" y="130" width="234" height="42" rx="13" fill="#1B2A33"/>
  <rect x="40" y="158" width="234" height="14" fill="#1B2A33"/>
  <text x="157" y="157" font-size="12.5" font-weight="700" fill="#FFFFFF" text-anchor="middle" letter-spacing="0.5">PASTA DA SKILL</text>

  <!-- Folder label -->
  <text x="57" y="195" font-size="11.5" font-weight="700" fill="#1B2A33">analise-contrato-b2b/</text>

  <!-- SKILL.md -->
  <rect x="68" y="203" width="193" height="26" rx="6" fill="#FBF6EA" stroke="#C2912C" stroke-width="1"/>
  <text x="83" y="220" font-size="11.5" font-weight="700" fill="#1B2A33">SKILL.md</text>
  <rect x="185" y="208" width="66" height="15" rx="7" fill="#C2912C"/>
  <text x="218" y="219" font-size="10" font-weight="700" fill="#FFFFFF" text-anchor="middle" letter-spacing="0.3">principal</text>

  <!-- scripts/ -->
  <text x="68" y="250" font-size="11" font-weight="600" fill="#44525C">scripts/</text>
  <rect x="78" y="256" width="183" height="40" rx="6" fill="#EFF6F7" stroke="#2E7D8A" stroke-width="1"/>
  <text x="91" y="272" font-size="11" fill="#1B2A33">validar_clausulas.py</text>
  <text x="91" y="288" font-size="11" fill="#1B2A33">gerar_parecer.py</text>

  <!-- templates/ -->
  <text x="68" y="316" font-size="11" font-weight="600" fill="#44525C">templates/</text>
  <rect x="78" y="322" width="183" height="40" rx="6" fill="#EFF6F7" stroke="#2E7D8A" stroke-width="1"/>
  <text x="91" y="338" font-size="11" fill="#1B2A33">parecer_executivo.md</text>
  <text x="91" y="354" font-size="11" fill="#1B2A33">matriz_riscos.xlsx</text>

  <!-- examples/ -->
  <text x="68" y="382" font-size="11" font-weight="600" fill="#44525C">examples/</text>
  <rect x="78" y="388" width="183" height="40" rx="6" fill="#F1ECE0" stroke="#D8D0BD" stroke-width="1"/>
  <text x="91" y="404" font-size="11" fill="#1B2A33">contrato-saas-bom</text>
  <text x="91" y="420" font-size="11" fill="#1B2A33">contrato-risco-alto</text>

  <!-- references/ -->
  <text x="68" y="448" font-size="11" font-weight="600" fill="#44525C">references/</text>
  <rect x="78" y="454" width="183" height="40" rx="6" fill="#F1ECE0" stroke="#D8D0BD" stroke-width="1"/>
  <text x="91" y="470" font-size="11" fill="#1B2A33">clausulas-padrao-casa</text>
  <text x="91" y="486" font-size="11" fill="#1B2A33">checklist-revisao</text>

  <!-- Key message col 1 -->
  <text x="157" y="506" font-size="11" font-weight="600" fill="#7C7768" text-anchor="middle">Versionada em Git · mantida como código</text>

  <!-- ─────────── ARROW 1 ─────────── -->
  <!-- Arrow shaft -->
  <line x1="278" y1="311" x2="322" y2="311" stroke="#2E7D8A" stroke-width="2.2" marker-end="url(#arrowHead30c)"/>
  <!-- Arrow label lines -->
  <text x="300" y="292" font-size="10" fill="#2E7D8A" text-anchor="middle" font-weight="600">Claude</text>
  <text x="300" y="305" font-size="10" fill="#2E7D8A" text-anchor="middle" font-weight="600">carrega sob</text>
  <text x="300" y="326" font-size="10" fill="#2E7D8A" text-anchor="middle" font-weight="600">demanda</text>

  <!-- ─────────── COLUMN 2: FLUXO DE EXECUÇÃO ─────────── -->
  <rect x="327" y="130" width="226" height="362" rx="13" fill="#FFFFFF" filter="url(#sh30c)" stroke="#E6DFC9" stroke-width="1"/>

  <!-- Col 2 Header -->
  <rect x="327" y="130" width="226" height="42" rx="13" fill="#2E7D8A"/>
  <rect x="327" y="158" width="226" height="14" fill="#2E7D8A"/>
  <text x="440" y="157" font-size="12.5" font-weight="700" fill="#FFFFFF" text-anchor="middle" letter-spacing="0.5">FLUXO DE EXECUÇÃO</text>

  <!-- Step 1 -->
  <circle cx="352" cy="194" r="12" fill="#2E7D8A"/>
  <text x="352" y="198" font-size="11" font-weight="700" fill="#FFFFFF" text-anchor="middle">1</text>
  <text x="372" y="191" font-size="11" font-weight="600" fill="#1B2A33">Lê contrato</text>
  <text x="372" y="205" font-size="11" fill="#44525C">sistematicamente</text>
  <line x1="352" y1="206" x2="352" y2="220" stroke="#CFE3E6" stroke-width="1.5" stroke-dasharray="3,2"/>

  <!-- Step 2 -->
  <circle cx="352" cy="232" r="12" fill="#2E7D8A"/>
  <text x="352" y="236" font-size="11" font-weight="700" fill="#FFFFFF" text-anchor="middle">2</text>
  <text x="372" y="229" font-size="11" font-weight="600" fill="#1B2A33">Compara com</text>
  <text x="372" y="243" font-size="11" fill="#44525C">clausulas-padrao-casa.md</text>
  <line x1="352" y1="244" x2="352" y2="258" stroke="#CFE3E6" stroke-width="1.5" stroke-dasharray="3,2"/>

  <!-- Step 3 -->
  <circle cx="352" cy="270" r="12" fill="#2E7D8A"/>
  <text x="352" y="274" font-size="11" font-weight="700" fill="#FFFFFF" text-anchor="middle">3</text>
  <text x="372" y="267" font-size="11" font-weight="600" fill="#1B2A33">Identifica cláusulas</text>
  <text x="372" y="281" font-size="11" fill="#44525C">atípicas e riscos</text>
  <line x1="352" y1="282" x2="352" y2="296" stroke="#CFE3E6" stroke-width="1.5" stroke-dasharray="3,2"/>

  <!-- Step 4 -->
  <circle cx="352" cy="308" r="12" fill="#2E7D8A"/>
  <text x="352" y="312" font-size="11" font-weight="700" fill="#FFFFFF" text-anchor="middle">4</text>
  <text x="372" y="305" font-size="11" font-weight="600" fill="#1B2A33">Executa script</text>
  <text x="372" y="319" font-size="11" fill="#44525C">validar_clausulas.py</text>
  <line x1="352" y1="320" x2="352" y2="334" stroke="#CFE3E6" stroke-width="1.5" stroke-dasharray="3,2"/>

  <!-- Step 5 -->
  <circle cx="352" cy="346" r="12" fill="#2E7D8A"/>
  <text x="352" y="350" font-size="11" font-weight="700" fill="#FFFFFF" text-anchor="middle">5</text>
  <text x="372" y="343" font-size="11" font-weight="600" fill="#1B2A33">Classifica nível:</text>
  <!-- Risk pills row -->
  <rect x="372" y="351" width="36" height="15" rx="7" fill="#B5532F"/>
  <text x="390" y="362" font-size="9.5" fill="#FFFFFF" text-anchor="middle" font-weight="700">crítico</text>
  <rect x="411" y="351" width="28" height="15" rx="7" fill="#C2912C"/>
  <text x="425" y="362" font-size="9.5" fill="#FFFFFF" text-anchor="middle" font-weight="700">alto</text>
  <rect x="441" y="351" width="34" height="15" rx="7" fill="#44525C"/>
  <text x="458" y="362" font-size="9.5" fill="#FFFFFF" text-anchor="middle" font-weight="700">médio</text>
  <rect x="478" y="351" width="32" height="15" rx="7" fill="#7C7768"/>
  <text x="494" y="362" font-size="9.5" fill="#FFFFFF" text-anchor="middle" font-weight="700">baixo</text>
  <line x1="352" y1="369" x2="352" y2="380" stroke="#CFE3E6" stroke-width="1.5" stroke-dasharray="3,2"/>

  <!-- Step 6 -->
  <circle cx="352" cy="392" r="12" fill="#2E7D8A"/>
  <text x="352" y="396" font-size="11" font-weight="700" fill="#FFFFFF" text-anchor="middle">6</text>
  <text x="372" y="389" font-size="11" font-weight="600" fill="#1B2A33">Gera parecer via</text>
  <text x="372" y="403" font-size="11" fill="#44525C">parecer_executivo.md</text>
  <line x1="352" y1="404" x2="352" y2="418" stroke="#CFE3E6" stroke-width="1.5" stroke-dasharray="3,2"/>

  <!-- Step 7 -->
  <circle cx="352" cy="430" r="12" fill="#2E7D8A"/>
  <text x="352" y="434" font-size="11" font-weight="700" fill="#FFFFFF" text-anchor="middle">7</text>
  <text x="372" y="427" font-size="11" font-weight="600" fill="#1B2A33">Preenche</text>
  <text x="372" y="441" font-size="11" fill="#44525C">matriz_riscos.xlsx</text>

  <!-- ─────────── ARROW 2 ─────────── -->
  <line x1="557" y1="311" x2="601" y2="311" stroke="#2E7D8A" stroke-width="2.2" marker-end="url(#arrowHead30c)"/>
  <rect x="555" y="296" width="48" height="20" rx="6" fill="#FBF6EA" stroke="#C2912C" stroke-width="1"/>
  <text x="579" y="310" font-size="11" fill="#C2912C" text-anchor="middle" font-weight="700">90 seg.</text>

  <!-- ─────────── COLUMN 3: RESULTADO ─────────── -->
  <rect x="606" y="130" width="234" height="362" rx="13" fill="#FFFFFF" filter="url(#sh30c)" stroke="#E6DFC9" stroke-width="1"/>

  <!-- Col 3 Header -->
  <rect x="606" y="130" width="234" height="42" rx="13" fill="#C2912C"/>
  <rect x="606" y="158" width="234" height="14" fill="#C2912C"/>
  <text x="723" y="157" font-size="12.5" font-weight="700" fill="#FFFFFF" text-anchor="middle" letter-spacing="0.5">RESULTADO</text>

  <!-- Artifact 1 -->
  <rect x="622" y="182" width="202" height="70" rx="10" fill="#FBF6EA" stroke="#C2912C" stroke-width="1.2" filter="url(#sh30c)"/>
  <rect x="622" y="182" width="202" height="20" rx="10" fill="#C2912C"/>
  <rect x="622" y="193" width="202" height="9" fill="#C2912C"/>
  <text x="723" y="196" font-size="10" font-weight="700" fill="#FFFFFF" text-anchor="middle" letter-spacing="1">ARTIFACT</text>
  <text x="632" y="218" font-size="11.5" font-weight="700" fill="#1B2A33">Parecer executivo</text>
  <text x="632" y="233" font-size="11.5" font-weight="600" fill="#1B2A33">estruturado</text>
  <text x="632" y="247" font-size="11" fill="#7C7768">3 páginas</text>

  <!-- Artifact 2 -->
  <rect x="622" y="268" width="202" height="70" rx="10" fill="#FBF6EA" stroke="#C2912C" stroke-width="1.2" filter="url(#sh30c)"/>
  <rect x="622" y="268" width="202" height="20" rx="10" fill="#C2912C"/>
  <rect x="622" y="279" width="202" height="9" fill="#C2912C"/>
  <text x="723" y="282" font-size="10" font-weight="700" fill="#FFFFFF" text-anchor="middle" letter-spacing="1">ARTIFACT</text>
  <text x="632" y="304" font-size="11.5" font-weight="700" fill="#1B2A33">Matriz de riscos</text>
  <text x="632" y="319" font-size="11" fill="#44525C">12 cláusulas categorizadas</text>

  <!-- Artifact 3 -->
  <rect x="622" y="354" width="202" height="70" rx="10" fill="#FBF6EA" stroke="#C2912C" stroke-width="1.2" filter="url(#sh30c)"/>
  <rect x="622" y="354" width="202" height="20" rx="10" fill="#C2912C"/>
  <rect x="622" y="365" width="202" height="9" fill="#C2912C"/>
  <text x="723" y="368" font-size="10" font-weight="700" fill="#FFFFFF" text-anchor="middle" letter-spacing="1">ARTIFACT</text>
  <text x="632" y="390" font-size="11.5" font-weight="700" fill="#1B2A33">Lista de pontos para</text>
  <text x="632" y="405" font-size="11.5" font-weight="600" fill="#1B2A33">negociação</text>

  <!-- Bottom note col 3 -->
  <text x="723" y="450" font-size="11" fill="#7C7768" text-anchor="middle">Sênior revisa em 15 min</text>
  <text x="723" y="465" font-size="11" fill="#7C7768" text-anchor="middle">o que levaria 2–3h do zero</text>

  <!-- ─────────── BOTTOM BAND ─────────── -->
  <rect x="40" y="502" width="800" height="50" rx="10" fill="#1B2A33"/>
  <text x="440" y="522" font-size="11.5" font-weight="700" fill="#C2912C" text-anchor="middle" letter-spacing="0.5">O PADRÃO COMUM:</text>
  <text x="440" y="540" font-size="11" fill="#FBF8F1" text-anchor="middle">Escopo delimitado · Fluxo numerado · Templates e references · Scripts quando aplicável · Artifact estruturado</text>

</svg>
